<svg width="1920" height="1080" viewBox="0 0 1920 1080" xmlns="http://www.w3.org/2000/svg">
  <defs>
    <linearGradient id="grad1" x1="0%" y1="0%" x2="100%" y2="100%">
      <stop offset="0%" style="stop-color:#3182CE;stop-opacity:0.8" />
      <stop offset="100%" style="stop-color:#2C5282;stop-opacity:0.9" />
    </linearGradient>
    <linearGradient id="grad2" x1="0%" y1="0%" x2="100%" y2="100%">
      <stop offset="0%" style="stop-color:#4299E1;stop-opacity:0.1" />
      <stop offset="100%" style="stop-color:#2B6CB0;stop-opacity:0.3" />
    </linearGradient>
  </defs>
  
  <!-- Background -->
  <rect width="100%" height="100%" fill="url(#grad1)" />
  
  <!-- Abstract shapes -->
  <circle cx="200" cy="200" r="400" fill="url(#grad2)" opacity="0.5" />
  <circle cx="1800" cy="900" r="500" fill="url(#grad2)" opacity="0.4" />
  
  <!-- Calendar grid pattern -->
  <g opacity="0.07" stroke="#FFFFFF" stroke-width="1">
    <!-- Vertical lines -->
    <line x1="300" y1="0" x2="300" y2="1080" />
    <line x1="600" y1="0" x2="600" y2="1080" />
    <line x1="900" y1="0" x2="900" y2="1080" />
    <line x1="1200" y1="0" x2="1200" y2="1080" />
    <line x1="1500" y1="0" x2="1500" y2="1080" />
    <line x1="1800" y1="0" x2="1800" y2="1080" />
    
    <!-- Horizontal lines -->
    <line x1="0" y1="200" x2="1920" y2="200" />
    <line x1="0" y1="400" x2="1920" y2="400" />
    <line x1="0" y1="600" x2="1920" y2="600" />
    <line x1="0" y1="800" x2="1920" y2="800" />
    <line x1="0" y1="1000" x2="1920" y2="1000" />
  </g>
  
  <!-- Calendar icons -->
  <g opacity="0.15" fill="#FFFFFF">
    <!-- Calendar icon 1 -->
    <rect x="400" y="300" width="60" height="60" rx="5" />
    <rect x="410" y="310" width="10" height="10" rx="2" />
    <rect x="440" y="310" width="10" height="10" rx="2" />
    <rect x="410" y="330" width="10" height="10" rx="2" />
    <rect x="440" y="330" width="10" height="10" rx="2" />
    <rect x="410" y="350" width="10" height="10" rx="2" />
    <rect x="440" y="350" width="10" height="10" rx="2" />
    
    <!-- Calendar icon 2 -->
    <rect x="1400" y="700" width="60" height="60" rx="5" />
    <rect x="1410" y="710" width="10" height="10" rx="2" />
    <rect x="1440" y="710" width="10" height="10" rx="2" />
    <rect x="1410" y="730" width="10" height="10" rx="2" />
    <rect x="1440" y="730" width="10" height="10" rx="2" />
    <rect x="1410" y="750" width="10" height="10" rx="2" />
    <rect x="1440" y="750" width="10" height="10" rx="2" />
  </g>
  
  <!-- Clock icons -->
  <g opacity="0.15" fill="#FFFFFF">
    <!-- Clock icon 1 -->
    <circle cx="800" cy="500" r="30" />
    <line x1="800" y1="500" x2="800" y2="480" stroke="#3182CE" stroke-width="2" />
    <line x1="800" y1="500" x2="815" y2="510" stroke="#3182CE" stroke-width="2" />
    
    <!-- Clock icon 2 -->
    <circle cx="1200" cy="300" r="30" />
    <line x1="1200" y1="300" x2="1200" y2="280" stroke="#3182CE" stroke-width="2" />
    <line x1="1200" y1="300" x2="1215" y2="310" stroke="#3182CE" stroke-width="2" />
  </g>
</svg>